<?xml version="1.0" encoding="utf-8"?>
<!-- Generator: Adobe Illustrator 25.2.3, SVG Export Plug-In . SVG Version: 6.00 Build 0)  -->
<svg version="1.1" id="Layer_1" xmlns="http://www.w3.org/2000/svg" xmlns:xlink="http://www.w3.org/1999/xlink" x="0px" y="0px"
	 viewBox="0 0 5407.79 3232.47" style="enable-background:new 0 0 5407.79 3232.47;" xml:space="preserve">
<style type="text/css">
	.st0{fill:#36AEA6;}
</style>
<g>
	<path class="st0" d="M2430.71,562.95c92.74,0,185.49,0,278.23,0c13.51,0,14.97,0.93,18.68,13.92c9.75,34.18,19.33,68.4,29.01,102.6
		c5.35,18.91,10.88,37.76,16.09,56.71c2.44,8.89,7.37,15.22,15.56,19.74c21.29,11.76,42.19,24.23,63.48,35.99
		c9.67,5.34,14.75,11.33,14.34,23.84c-1.17,36.17-0.41,72.4-0.44,108.61c-0.01,10.81-0.39,11.99-10.99,12.74
		c-12.21,0.86-24.52,0.33-36.79,0.33c-1.24,0-2.82-0.14-3.65-0.88c-2.34-2.08-6.27-4.71-6.06-6.76c0.28-2.72,3.63-6.94,6.11-7.29
		c7.89-1.11,16.01-1.19,24-0.79c9.98,0.5,12.76-1.7,12.4-11.42c-0.05-1.26,0.09-2.53,0.23-3.79c1.02-9.3-1.11-11.68-10.61-12
		c-1.89-0.06-4.36,0.26-5.53-0.77c-2.28-2-5.61-5.17-5.23-7.23c0.5-2.68,3.89-5.34,6.66-6.89c1.96-1.1,4.97-0.31,7.51-0.41
		c3.93-0.16,6.53-1.86,6.52-6.13c-0.01-4.3-2.97-5.07-6.47-5.18c-2.95-0.09-6.3,0.45-8.74-0.76c-2.44-1.22-5.35-4.19-5.48-6.55
		c-0.14-2.41,2.29-5.93,4.58-7.27c2.73-1.58,6.5-1.71,9.84-1.81c4.59-0.14,6.51-2.24,6.48-6.67c-0.05-9.74-0.08-19.48,0-29.22
		c0.04-5.39-3.05-8.51-7.34-10.96c-22.98-13.1-45.87-26.33-68.93-39.28c-6.85-3.84-11.29-8.88-13.45-16.64
		c-11.37-40.94-23.07-81.79-34.64-122.68c-3.57-12.62-7.03-25.26-10.59-37.88c-2.14-7.58-5.85-9.99-15.3-9.99
		c-157.96,0-315.92,0.01-473.88,0.01c-22.02,0-44.04-0.03-66.06,0c-8.67,0.01-10.03,1.31-10.03,9.92
		c-0.02,107.35-0.03,214.71,0,322.06c0,9.1,2.02,10.97,11.43,10.99c19.83,0.03,39.66,0.01,59.49,0.02c1.9,0,3.82-0.03,5.71,0.13
		c4.5,0.38,7.91,2.43,8.13,7.26c0.21,4.7-3.4,6.52-7.3,7.44c-2.02,0.48-4.2,0.43-6.31,0.43c-31.76,0.02-63.52,0.06-95.28-0.05
		c-3.1-0.01-6.54-0.29-9.17-1.68c-2.02-1.07-4.36-4.23-4.12-6.18c0.28-2.38,3.02-4.52,4.88-6.61c0.46-0.51,1.58-0.48,2.41-0.61
		c13.74-2.15,13.75-2.15,13.75-16.06c0-106.93,0-213.86,0-320.79c0-2.33-0.02-4.66,0.01-6.99c0.14-11.67,2.95-14.52,14.84-14.53
		c45.74-0.05,91.47-0.03,137.21-0.03C2334.15,562.95,2382.43,562.95,2430.71,562.95z"/>
	<path class="st0" d="M2517.44,962.02c43.83,0,87.67,0,131.5,0c10.6,0,11.09-0.72,6.36-10.14c-22.79-45.47,10.3-100.26,62.8-100.25
		c52.51,0.02,85.59,57.1,60.37,102.89c-3.09,5.6-1.79,7.47,5.52,7.48c45.53,0.04,91.05,0.02,136.58,0.02
		c11.01,0,22.02-0.05,33.03,0.04c3.09,0.03,7.04-0.43,6.81,4.39c-0.2,4.11-1.03,8.26-6.72,8.11c-2.12-0.05-4.23,0.04-6.35,0.04
		c-58.02,0-116.04,0.05-174.06-0.07c-5.54-0.01-10.12,1.26-14.68,4.61c-23.6,17.38-56.16,18-80.37,1.24
		c-6.11-4.23-12.06-5.91-19.37-5.89c-95.29,0.17-190.58,0.03-285.87,0.27c-4.7,0.01-10.17,1.61-13.96,4.32
		c-24.57,17.6-57.31,18.16-81.98,0.33c-4.98-3.6-9.91-4.91-15.86-4.9c-82.58,0.1-165.17,0.07-247.75,0.06
		c-4.67,0-9.57,0.57-10.69-6.07c-0.67-3.98,0.3-6.22,4.56-6.37c2.33-0.08,4.66-0.11,6.98-0.12c77.5-0.01,155,0,232.5,0
		c1.91,0,3.81-0.03,5.72-0.02c5.19,0.03,6.37-2.11,4.01-6.76c-7.4-14.55-10.33-29.74-7.53-46.11c4.69-27.44,27.64-50.98,55.46-56.15
		c33.53-6.24,66.7,12.27,78.16,44.21c6.82,19,5.39,37.91-3.33,56.13c-3.58,7.48-3.04,8.67,5.37,8.68
		c44.26,0.03,88.51,0.02,132.77,0.02C2517.44,962.01,2517.44,962.02,2517.44,962.02z M2718.09,866.6
		c-29.95-2.42-55.56,25.95-54.72,54.96c0.86,29.59,24.26,53.19,54.35,53.09c30.61-0.11,53.17-23.8,54.19-54.65
		C2772.76,894.28,2747.22,864.27,2718.09,866.6z M2317.98,866.62c-29.58-2.58-54.66,25.94-54.97,53.59
		c-0.31,27.61,24.2,54.64,54.51,54.52c29.91-0.12,53.6-23.86,53.98-54.1C2371.9,888.76,2343.42,863.93,2317.98,866.62z"/>
	<path class="st0" d="M2573.3,750.4c0-45.94-0.01-91.88,0.01-137.81c0-12.12,1.89-14.02,13.98-14.03c32.6-0.02,65.2-0.02,97.8-0.01
		c10.96,0,12.55,1.53,15.12,11.99c10.86,44.33,21.93,88.61,32.75,132.94c1.14,4.68,1.63,9.62,1.69,14.45
		c0.21,16.72,0.12,33.45,0.08,50.17c-0.02,9.97-2.76,11.91-12.91,13c-14.87,1.6-29.99,2.87-44.36,6.71
		c-27.08,7.24-43.81,25.94-51.96,52.52c-1.43,4.65-2.92,9.28-4.1,14c-1.25,5-4.22,7.78-9.36,7.83c-9.95,0.1-19.9,0.13-29.84-0.03
		c-5.59-0.09-8.52-3.34-8.77-8.84c-0.19-4.23-0.12-8.47-0.12-12.7C2573.3,837.2,2573.3,793.8,2573.3,750.4z M2591.1,761.29
		c-0.72,0.15-1.44,0.31-2.16,0.46c-0.14,2.68-0.39,5.35-0.39,8.03c-0.02,35.58,0,71.15-0.02,106.73c0,3.93-0.29,7.41,5.38,8.13
		c9.66,1.23,12.8,0.53,15-5.13c1.83-4.73,3.51-9.53,5.4-14.24c9.07-22.65,24.64-39,46.83-49.34c15.84-7.38,32.86-8.97,49.73-11.62
		c2.64-0.41,6.27-1.52,7.38-3.48c6.4-11.24-1.91-25.2-14.8-25.68c-4.94-0.19-8.18,1.72-9.42,6.59c-0.99,3.89-1.33,8.05-2.92,11.65
		c-1.52,3.43-3.65,7.79-6.67,9.13c-7.29,3.22-11.46-2.36-8.94-12.29c5.04-19.86,10.49-39.61,15.85-59.39
		c1.34-4.96,3.91-8.67,9.91-7.27c4.89,1.14,7.08,5.42,5.7,11.51c-1.36,5.97-3.48,11.79-4.52,17.81c-0.32,1.86,1.25,5.12,2.89,6.02
		c2.69,1.47,6.16,1.9,9.29,1.89c0.64,0,2.1-4.03,1.77-5.97c-1.91-11.24-3.92-22.48-6.47-33.59c-7.34-31.93-14.98-63.79-22.45-95.7
		c-1.52-6.49-4.02-11.53-12.02-11.09c-3.35,0.19-6.74-0.62-10.11-0.58c-22.22,0.22-44.43,0.54-66.65,0.82
		c-8.76,0.11-9.69,1.36-10.23,10.23c-1.62,26.43,3.15,52.17,8.26,77.84c5.27,26.49,10.7,52.96,16.64,79.31
		c3.82,16.95-0.61,20.38,23.25,19.77c6.78-0.17,10.49,2.7,10.28,7.58c-0.27,6.18-4.78,7.47-9.77,7.57
		c-7.83,0.16-15.67,0.22-23.5,0.02c-7.62-0.19-11-4.08-12.24-11.85c-1.69-10.58-3.84-21.1-6.13-31.58
		C2594.31,769.39,2592.51,765.39,2591.1,761.29z"/>
	<path class="st0" d="M2317.99,598.55c32.59,0,65.18-0.01,97.78,0.01c11.26,0.01,12.8,1.44,12.81,12.9
		c0.06,48.65,0.05,97.31,0.02,145.96c-0.01,12.23-2.01,14.28-14.17,15.03c-2.32,0.14-4.65,0.08-6.98,0.08c-48.23,0-96.47,0-144.7,0
		c-12.26,0-24.52,0-36.79,0c-1.48,0-2.96,0.02-4.44-0.03c-14.4-0.5-16.56-2.7-16.56-16.9c0-47.41-0.01-94.81,0.01-142.22
		c0.01-12.84,1.95-14.81,14.62-14.82C2252.38,598.53,2285.18,598.55,2317.99,598.55z M2316.65,615.08
		c-28.35,0-56.71-0.01-85.06,0.01c-9.1,0.01-10.32,1.2-10.32,10.22c-0.02,39.78-0.02,79.56,0,119.33
		c0.01,8.95,1.33,10.27,10.34,10.27c56.71,0.02,113.41,0.02,170.12,0c9.02,0,10.29-1.27,10.29-10.29c0.03-39.78,0.02-79.56,0-119.34
		c0-9.02-1.19-10.19-10.32-10.2C2373.36,615.07,2345,615.08,2316.65,615.08z"/>
	<path class="st0" d="M2365.62,803.07c48.49,0,96.97-0.01,145.46,0.03c2.94,0,6.26-0.26,8.69,0.99c2.24,1.14,4.97,4.24,4.85,6.32
		c-0.14,2.46-2.68,5.41-4.98,6.94c-1.85,1.24-4.9,0.9-7.41,0.9c-97.82,0.04-195.64,0.03-293.46,0.03c-1.06,0-2.12,0.05-3.17-0.05
		c-4.86-0.48-9.52-1.25-9.47-7.75c0.05-6.55,4.6-7.36,9.59-7.37c20.96-0.05,41.92-0.03,62.88-0.03
		C2307.6,803.07,2336.61,803.07,2365.62,803.07z"/>
	<path class="st0" d="M2518.38,936.49c-33.03,0-66.06,0.03-99.1-0.05c-3.35-0.01-7.1,0.12-9.93-1.29c-2.55-1.27-5.75-4.67-5.61-6.94
		c0.14-2.34,3.62-5.45,6.29-6.42c3.86-1.41,8.31-1.6,12.52-1.6c63.31-0.09,126.62-0.08,189.94-0.01c4.42,0.01,9.05,0.09,13.2,1.38
		c2.74,0.85,6.14,3.59,6.74,6.09c0.49,2.02-2.22,5.82-4.5,7.22c-2.46,1.51-6.06,1.55-9.17,1.56
		C2585.29,936.53,2551.84,936.5,2518.38,936.49z"/>
	<path class="st0" d="M2506.4,1030.6c-44.26,0-88.51,0-132.77-0.01c-2.12,0-4.69,0.66-6.24-0.3c-2.36-1.45-5.45-3.98-5.55-6.17
		c-0.09-1.99,3.14-4.55,5.43-6.07c1.34-0.89,3.71-0.28,5.61-0.28c88.93-0.01,177.87-0.01,266.8,0c1.69,0,3.83-0.57,4.98,0.24
		c2.27,1.59,5.57,4,5.53,6c-0.05,2.19-3.09,4.79-5.43,6.27c-1.53,0.97-4.12,0.31-6.24,0.31
		C2594.48,1030.6,2550.44,1030.6,2506.4,1030.6z"/>
	<path class="st0" d="M2751.31,921.96c1.78,15.02-13.54,34.1-34.56,33.68c-17.92-0.36-32.92-15.76-32.93-34.27
		c-0.02-18.89,14.59-34.2,32.75-34.31C2736.49,886.92,2751.32,901.82,2751.31,921.96z M2736.08,922.2
		c0.04-11.59-7.51-19.77-18.37-19.89c-10.43-0.11-19.77,9.01-19.64,19.19c0.14,10.47,8.59,18.8,19.13,18.87
		C2728.99,940.45,2736.04,933.66,2736.08,922.2z"/>
	<path class="st0" d="M2283.55,921.35c-0.04-19.09,15.04-34.25,34.17-34.33c18.34-0.08,34.41,15.83,34.22,33.86
		c-0.21,19.14-15.97,34.84-34.81,34.68C2298.37,955.42,2283.6,940.36,2283.55,921.35z M2335.84,921.6c0.1-10.71-7.58-18.9-17.8-19
		c-10.09-0.1-19.24,8.86-19.19,18.8c0.05,10.5,8.32,18.81,18.84,18.92C2327.6,940.41,2335.75,932.02,2335.84,921.6z"/>
	<path class="st0" d="M2129.16,1030.6c-41.5,0-83,0-124.5-0.01c-1.98,0-4.39,0.66-5.85-0.3c-2.21-1.45-5.11-3.98-5.2-6.17
		c-0.08-1.99,2.94-4.55,5.09-6.07c1.26-0.89,3.48-0.28,5.26-0.28c83.4-0.01,166.8-0.01,250.19,0c1.59,0,3.59-0.57,4.67,0.24
		c2.13,1.59,5.23,4,5.18,6c-0.05,2.19-2.9,4.79-5.09,6.27c-1.44,0.97-3.86,0.31-5.85,0.31
		C2211.77,1030.6,2170.46,1030.6,2129.16,1030.6z"/>
	<path class="st0" d="M2853.86,1030.57c-32.41,0-64.82,0-97.23-0.01c-1.55,0-3.43,0.66-4.57-0.3c-1.73-1.45-3.99-3.98-4.06-6.17
		c-0.06-1.99,2.3-4.55,3.97-6.07c0.98-0.89,2.71-0.28,4.11-0.28c65.13-0.01,130.26-0.01,195.39,0c1.24,0,2.81-0.57,3.65,0.24
		c1.66,1.59,4.08,4,4.05,6c-0.04,2.19-2.27,4.79-3.98,6.27c-1.12,0.97-3.02,0.31-4.57,0.31
		C2918.37,1030.57,2886.12,1030.57,2853.86,1030.57z"/>
</g>
<g>
</g>
<g>
</g>
<g>
</g>
<g>
</g>
<g>
</g>
<g>
</g>
</svg>
