<?xml version="1.0" encoding="utf-8"?>
<!-- Generator: Adobe Illustrator 25.2.3, SVG Export Plug-In . SVG Version: 6.00 Build 0)  -->
<svg version="1.1" id="Layer_1" xmlns="http://www.w3.org/2000/svg" xmlns:xlink="http://www.w3.org/1999/xlink" x="0px" y="0px"
	 viewBox="0 0 2702.9 2702.9" style="enable-background:new 0 0 2702.9 2702.9;" xml:space="preserve">
<style type="text/css">
	.st0{fill:none;stroke:#000000;stroke-width:15;stroke-miterlimit:10;}
	.st1{fill:none;stroke:#000000;stroke-width:15;stroke-linecap:round;stroke-miterlimit:10;}
	.st2{fill:none;stroke:#000000;stroke-width:11;stroke-linecap:round;stroke-miterlimit:10;}
	.st3{fill:none;stroke:#000000;stroke-width:13;stroke-linecap:round;stroke-miterlimit:10;}
	.st4{fill:none;stroke:#000000;stroke-width:18;stroke-miterlimit:10;}
	.st5{stroke:#000000;stroke-width:18;stroke-miterlimit:10;}
	.st6{fill:none;stroke:#000000;stroke-width:14;stroke-linecap:round;stroke-miterlimit:10;}
	.st7{stroke:#000000;stroke-miterlimit:10;}
	.st8{font-family:'Futura-Bold';}
	.st9{font-size:513.3322px;}
	.st10{fill:none;stroke:#000000;stroke-width:13;stroke-miterlimit:10;}
	.st11{fill:none;stroke:#000000;stroke-width:8;stroke-miterlimit:10;}
</style>
<g>
	<path d="M463.7,502.7c0,8.4-0.9,27.3-1.1,35c-1.1,29.4-15,50.6-41.2,63.7c-25.2,12.6-51.7,21.7-79.3,27.7
		c-20,4.4-40.3,7.5-60.8,8.2c-13.2,0.5-26.4,1.2-39.6,0.8c-23.1-0.7-45.9-3.3-68.5-8c-26.9-5.5-52.5-14.4-77.6-25.2
		c-24.2-10.4-40.9-27-46.9-53.1c-1.4-6.1-1.5-12.6-1.7-19c-0.7-15.3-1.1-30.5-1.6-45.8c-0.8-28.5-1.5-57-2.3-85.5
		c-0.5-17.2-1.1-34.4-1.7-51.6c-0.7-22.3-1.3-44.5-2-66.8c-0.9-30.1-1.8-60.2-2.8-90.3c-0.6-17.3-0.8-34.7-1.9-52
		c-1-15.4,5.8-26.6,17.2-35.8C65.3,94.2,81,87.7,97.1,82.2c22.3-7.5,45.2-12.7,68.6-15.3c21.8-2.4,43.6-4.7,65.5-5.7
		c21.1-0.9,42.4-1.2,63.5,0.3c24.2,1.8,48.2,5.3,72.2,9.1c29,4.7,57.1,12.6,82.3,28.2c7,4.4,13.2,10.5,18.7,16.7
		c8.7,9.8,7.5,22.1,6.7,34.1c-0.1,1.9-0.4,3.8-0.5,5.7c-0.6,17.5-1.1,35-1.7,52.5c-0.1,4.1,2.4,3.7,5,3.7c15.1,0,30.3-0.3,45.4,0.1
		c25.5,0.6,48.2,9.7,68.2,25c26.3,20.2,40.6,47.7,45.7,80c2.3,14.5,3.9,29.4,3.6,44.1c-0.7,32-7.3,62.7-25.9,89.8
		c-18,26.4-42.8,43.6-72.8,53.7c-20,6.7-40.7-1-61.9-1.3C474.5,502.9,470.4,502.7,463.7,502.7z M50.4,164.4c-0.2,2-0.4,2.8-0.3,3.5
		c0.9,29.5,1.8,58.9,2.6,88.4c0.7,23.7,1.2,47.5,1.9,71.2c1,34.4,2,68.8,3,103.2c1,35.7,2,71.4,3,107.1c0.6,20.3,9.5,36.3,26.7,46.8
		c17.6,10.8,37.1,17.3,56.7,23.4c27.3,8.4,55.3,13.2,83.8,14.7c15.9,0.8,31.9,1,47.8,0c18.5-1.2,37.1-3,55.4-6.2
		c29.7-5.2,58.2-14.7,85.2-28.2c20-10,31.2-26.3,32.9-48.5c1.2-15.9,1.3-31.8,1.8-47.8c0.5-17.2,0.8-34.4,1.3-51.6
		c1.5-44.9,3.1-89.8,4.5-134.8c0.9-28.5,1.6-57.1,2.4-85.6c0.3-9.6,0.9-19.1,1.1-28.7c0.2-8.8,0-17.6,0-26.7
		c-0.8,0.3-1.3,0.3-1.6,0.6c-16.7,13.5-36.4,20.9-56.6,26.8c-36.6,10.6-74.3,15.3-112.4,17.4c-33.8,1.9-67.5,0.8-101.2-2.7
		c-24.1-2.6-47.9-6.4-71.3-12.6c-20.8-5.5-41.1-12.4-59.2-24.5C55.8,168,53.5,166.5,50.4,164.4z M48.8,137.9c1.2,2.2,3,6.9,6,10.6
		c6.6,8.2,15.9,13.1,25.2,17.7c7.6,3.8,7.7,3.7,13.6-2.5c0.6-0.6,1.2-1,1.8-1.5c13.1-11.7,28.8-18.5,45.4-23.5
		c32.2-9.7,65.5-12.8,99-13.3c16.1-0.2,32.2,0.2,48.3,0.8c26.4,1,52.6,4.2,78.1,11.5c20.4,5.8,39.8,13.5,54.3,30.1
		c0.7,0.8,2.6,1.4,3.6,1c11.7-4.8,22.9-10.5,31.5-20.1c8-8.9,8.3-18.6-0.4-27.2c-5.7-5.6-12.4-10.5-19.4-14.4
		c-20-11.2-42-17-64.2-21.9c-28.4-6.2-57.2-9.2-86.1-10.4c-37.9-1.6-75.9-0.4-113.5,4.8c-26.1,3.6-52,8.8-76.8,18.1
		c-13,4.9-25.7,10.5-36.2,19.8C53.5,122.3,49,127.6,48.8,137.9z M503,266.3c16.5,0,30.8-1.7,46.5,2.3c20.4,5.2,31.9,19.9,37.3,39.2
		c8.2,29.1,8,58.5,1.8,87.9c-4.2,19.5-13.2,36.4-28.6,49.5c-20.9,17.8-47.8,22.5-71.6,5.9c-5.1-3.5-11.5-5-17.4-7.4
		c-4-1.6-5.4,0-5.4,4.1c-0.3,15.8-0.8,31.5-1.2,47.3c0,1.4,0.2-8.4,0.3-7c1.7,0.2,3,0.7,4.2,0.7c29.9,1.4,58.8,8.2,85.9-4.8
		c37.4-17.9,59.6-47.8,68.3-87.9c5-22.9,5.5-46,2.3-69.4c-3.9-28.5-14.1-53.8-35.4-73.7c-17.2-16-37.8-25.6-61.2-27.1
		c-17.3-1.1-34.8-0.1-52.1-0.3c-3.4,0-4.4,1.3-4.4,4.4c-0.3,12.8-0.8,25.5-1.1,38.2c-0.2,7.9,0-10.2,0-1.6 M466.6,429.3
		c13.8,1.9,18.2,3.5,29.6,10.6c8.6,5.4,17.7,9,28,7.3c19.7-3.2,33.2-15.2,42.6-32.1c8.6-15.3,11.3-32.3,12.1-49.5
		c0.9-18.4,0.3-36.6-5.2-54.3c-4.6-14.9-12.6-27-29.1-30.3c-6.2-1.2-12.7-1.6-19-1.3c-9.8,0-11-0.2-23.3-0.2c-8.9,0-16,0.4-27.7,1.2
		c-3.5,0.3-4.5,1.6-4.5,5c-0.5,19.6-1.2,64.6-1.9,84.2c-0.5,12.9-1.2,25.8-1.6,38.7C466.4,415.4,466.6,422.2,466.6,429.3z"/>
</g>
<g>
	<path d="M698.9,227.5c4.5-5.4,9.8-5.3,16.4-4.4c35.2,4.9,70.5,9.6,105.8,13.4c37.3,4,74.8,3.9,112.3,2.7
		c46.7-1.5,93.2-6.3,139.3-14.5c4.4-0.8,8.8-1.6,13.2-2.3c8-1.3,12.9,3.4,11.8,11.5c-3.5,24-7.4,47.9-10.5,71.9
		c-2,15.3-3.6,30.8-4.1,46.2c-1.1,32.6-2.7,65.3-1.8,97.9c0.9,32.7,4.2,65.3,7.5,97.9c2.1,20.6,5.9,41,9,61.5
		c0.9,6.2-0.4,8.5-6.9,12.2c-1,0-2,0-3,0c-5.4-1-10.7-2.1-16.1-3c-46.3-8-92.9-12.8-139.9-14.3c-59.7-2-119.1,1.3-178.2,9.9
		c-15,2.2-29.8,5-44.8,7.5c-3.3,0-6.7,0-10,0c0-4.7,0-9.3,0-14c1-4,2.1-7.8,2.8-11.8c12.2-70.9,17.2-142.3,14.2-214.3
		c-1.8-44-6.5-87.6-13.7-131c-0.8-5-2.2-9.9-3.3-14.9C698.9,232.8,698.9,230.1,698.9,227.5z M1082.5,238.6
		c-122.8,23.3-244.2,23.2-366.8,0.1c22.7,122.9,22.5,244.2,0,366.9c122.8-23,244.2-22.9,366.9,0
		C1059.7,482.8,1059.8,361.5,1082.5,238.6z"/>
	<path d="M1101.6,500.5c1.6-4.5,3.2-8.8,4.9-13.7c33.3,12.4,65.1,28.1,98.2,44.2c13.9-123.6,49.3-239.6,106.6-350.6
		c-123.9-13.7-240.1-48.9-350.7-106.6c-5.8,47.4-14.1,93-25.2,138.2c-5.6,0-10.8,0-16.6,0c1.9-7.8,3.6-15.2,5.5-22.6
		c9.8-39.6,16.2-79.9,21.5-120.3c0.2-1.3,0.1-2.7,0.2-4c0.8-8.5,7.7-12.3,15.3-8.3c32.9,17.3,66.7,32.4,101.3,45.9
		c34.6,13.6,69.8,25.6,105.8,34.5c32.6,8.1,65.6,14.6,98.6,21c17.4,3.4,35.2,5,52.8,7.4c7.7,1.1,11,7.1,7.7,14.2
		c-10.2,21.8-20.9,43.5-30.8,65.4c-6.6,14.5-12.8,29.3-17.9,44.4c-10.4,30.4-20.8,60.8-29.8,91.6c-10.1,34.3-17.6,69.3-23,104.7
		c-2.7,17.7-5.2,35.5-7.8,53.3c-1.2,8.1-6.6,11.1-13.9,7.8c-33.6-15.2-67.3-30.3-100.9-45.5C1102.7,501.3,1102.2,500.9,1101.6,500.5
		z"/>
	<path d="M967.5,127.7c0.6-8.8,1.2-17.5,1.8-26.2c0.2-3.3,2.8-3.9,5-2.9c8,3.3,15.8,6.9,23.6,10.7c1.2,0.6,1.4,3.1,2.1,4.7
		c-1.6,0.4-3.4,1.5-4.7,1.1c-4.7-1.7-9.1-3.9-13.7-5.8c-1.4-0.6-3-0.8-4.6-1.2c-0.3,1.5-0.8,3-1,4.5c-0.7,6.4-1,12.9-2.1,19.2
		c-0.3,1.7-2.7,4.2-4.1,4.2c-3.1,0-3-2.8-2.5-5.3c0.2-1,0.2-2,0.3-3C967.6,127.8,967.5,127.8,967.5,127.7z"/>
	<path d="M749,264.6c5.8,0.8,11.6,1.3,17.2,2.5c1.7,0.4,3,2.7,4.5,4.1c-1.7,0.9-3.5,2.5-5.2,2.5c-4.9-0.2-9.8-1.1-14.8-1.5
		c-1.2-0.1-2.9-0.1-3.7,0.6c-0.6,0.6-0.3,2.4-0.1,3.5c1.5,6.8,3.4,13.5,4.6,20.3c0.3,1.5-1.6,3.4-2.5,5.1c-1.4-1.3-3.5-2.4-4-4
		c-2.7-9.2-4.8-18.6-7.3-27.9c-1.1-4,0.7-5.3,4.1-5.4c2.3-0.1,4.6,0.4,7,0.6C748.9,264.9,749,264.8,749,264.6z"/>
</g>
<g>
	<path d="M1708.7,239.4c0,19.6-0.1,39.2,0,58.8c0.1,11.5,9.7,21.2,21.2,21.2c22.4,0.1,61.9-0.1,84.3,0c12.1,0,18.2,5,18.3,14.6
		c0.1,10.1-6.1,15.6-18.6,15.6c-22.4,0.1-61.9-0.2-84.3,0.3c-4.3,0.1-9.5,2.4-12.7,5.4c-14.3,13.6-32.3,14.4-45.6,1
		c-13.1-13-12.1-31.3,1.7-45.6c3-3.1,5-8.4,5.1-12.8c0.4-40.2,0.3-103.2,0.2-143.4c0-7.2,1.2-13.4,8.6-16.8
		c11.1-5,21.4,1.7,21.7,14.8C1708.9,174,1708.6,218.1,1708.7,239.4C1708.6,239.4,1708.6,239.4,1708.7,239.4z"/>
	<circle class="st0" cx="1693.7" cy="333.5" r="278.5"/>
</g>
<g>
	<path d="M436.4,698.9c5.9,1.6,11.9,2.9,17.6,5c28.8,10.7,48.2,38.2,48.2,68.9c0.1,114.5,0.1,229,0,343.4
		c0,41.1-33.2,73.7-74.9,73.8c-88.3,0.1-176.6,0-265,0c-21.5,0-43,0.3-64.5-0.1c-36.3-0.7-66-27.2-71.5-63.3c-0.1-1-0.6-1.9-0.9-2.8
		c0-119.7,0-239.3,0-359c0.3-0.9,0.8-1.8,0.9-2.7c5.1-28.6,21.4-48.2,48.3-58.7c5.3-2.1,11.1-3.1,16.7-4.5
		C206.4,698.9,321.4,698.9,436.4,698.9z M41.3,944.4c0,57.3-0.1,114.6,0,172c0.1,32.1,26.8,58.3,58.5,57.9c15.3-0.2,30.6-0.1,46-0.1
		c93.6,0.1,187.3,0.2,280.9,0.1c34.6-0.1,59.6-25.7,59.6-60.4c0-112.8,0-225.6,0-338.4c0-35.4-25.3-60.7-60.8-60.7
		c-107.8,0-215.6,0-323.4,0c-35.6,0-60.8,25.2-60.8,60.7C41.3,831.8,41.3,888.1,41.3,944.4z"/>
	<path d="M493.3,1330.8c-19.3-5-38.6-10-57.9-15c-88.2-22.8-176.5-45.5-264.7-68.3c-20-5.2-35.3-16.7-46-34.3
		c-0.9-1.5-1.6-3.1-2.8-5.4c5.9,0,11-0.2,16.1,0.1c1.3,0.1,2.9,1.4,3.8,2.6c8.5,10.9,19.2,18.2,32.6,21.7
		c105,27.1,209.9,54.3,314.9,81.3c31.3,8,62.8-10.5,70.9-41.8c26.5-101.5,52.6-203.1,79-304.7c3.6-13.9,6.6-27.6,1.9-41.7
		c-6.6-20.1-19.9-33.8-40.4-39.4c-25.3-7-50.8-13.3-76.3-19.8c-3.3-0.8-4.8-2-4.5-5.6c0.3-3.8,0.1-7.6,0.1-11.8
		c16.6,4.3,32.7,8.4,48.8,12.5c12.2,3.2,24.5,6.2,36.7,9.6c38.5,10.9,61.6,50.2,51.7,89c-24.7,96.3-49.7,192.5-74.6,288.8
		c-2.3,8.8-4.3,17.8-6.9,26.6c-8.8,30.1-28.6,48.3-59.3,54.8c-0.8,0.2-1.5,0.6-2.2,0.9C507.3,1330.8,500.3,1330.8,493.3,1330.8z"/>
</g>
<path d="M1194.9,1070.9c0,62.6,0,125.1,0,187.6c0,17.7-1.6,19.3-19.8,19.3c-83,0-165.9,0-248.9,0c-18.3,0-19.1-0.9-19.1-19.2
	c0-20.4,0-40.8,0-61.2c0-14-0.4-14.4-14.1-14.4c-17.2-0.1-34.5,0-51.7-0.3c-11.5-0.2-14.7-3.2-14.8-14.8
	c-0.2-59.9-0.3-119.8-0.3-179.7c0-36.6,0-73.2,0-109.7c0-11.8-0.7-12.3-12.4-12.4c-5.8,0-11.7,0.2-17.5-0.4
	c-8.1-0.9-12.9,2.2-15.9,9.7c-4,10-11.6,16.7-21.4,21.3c-16.1,7.5-35.2,4.5-47.5-6c-14.6-12.5-17.8-37.1-11.1-50.7
	c7.9-16.1,20.1-25.2,37.6-26c18.2-0.9,32.4,6.7,40.8,23.4c4,7.9,8.7,13.7,18.7,11.7c1.2-0.2,2.6,0.2,4,0.2
	c21.9,0.2,21.9,0.2,29.1-20.4c5.7-16.2,24.8-30.1,42.9-30.2c31.8-0.3,63.6-0.2,95.4-0.2c57.3,0,114.5,0.6,171.8-0.3
	c24-0.4,47.3,13.8,53,40.8c1.6,7.7,5.1,11.1,12.9,10.2c2.6-0.3,5.3-0.3,7.9,0c14,1.9,23.4-1.4,30.5-16c6.9-14.1,21.9-20.1,38.4-19.2
	c16.2,0.9,27.8,9.1,35.5,23.1c13.8,24.8,0.7,53.9-24.4,62.1c-20.9,6.9-43.4-0.7-52.9-22.7c-3.3-7.7-7.9-11.8-17-10.7
	c-7,0.9-14.3,0.7-21.4,0.2c-5.7-0.4-7.8,2.3-8.1,7.2c-0.2,4-0.2,7.9-0.2,11.9C1194.9,946.9,1194.9,1008.9,1194.9,1070.9z
	 M924.1,1045.6c0,0-0.1,0-0.1,0c0,18,0,36,0,54c0,49.8-0.1,99.6,0.1,149.4c0,11,1.3,11.8,12,11.8c50.9,0,101.7,0,152.6,0
	c26,0,51.9-0.2,77.9,0.1c6.9,0.1,9.8-2.6,9.6-9.3c-0.1-5.6-0.1-11.1-0.1-16.7c0-128.7,0.1-257.5,0.1-386.2
	c0-19.6-11.1-31.7-30.6-31.8c-73.4-0.3-146.8-0.2-220.2-0.2c-1.3,0-3.3-0.4-3.8,0.3c-1.5,1.9-4,5.1-3.3,6.2
	c7.2,12.2,5.6,25.8,5.7,38.8C924.3,923.2,924.1,984.4,924.1,1045.6z M844.9,1015.5C844.9,1015.5,844.9,1015.5,844.9,1015.5
	c0.1,46.4,0.2,92.7,0,139.1c0,7.7,2.7,10.3,10.3,10c13.5-0.5,27-0.2,40.5-0.2c10.3-0.1,11.5-1.3,11.5-11.3c0-78.4,0-156.9,0-235.3
	c0-13.8,0.2-27.6-0.1-41.3c-0.2-8.5-2.8-10.7-11.2-10.6c-12.5,0.1-24.9,0.2-37.3,0.1c-13.3-0.1-13.7,0.2-13.7,13.6
	C844.8,924.9,844.9,970.2,844.9,1015.5z M740.5,831.4c-15.2,0-25.6,10.8-25.5,26.3c0.1,15.1,11.4,26.3,26.2,25.9
	c12.8-0.4,25.2-12.5,25.4-24.9C766.8,843.8,754.9,831.4,740.5,831.4z M1255.3,857.5c-0.5,14,9.7,25,24.3,25.8
	c13.7,0.8,26.1-10.2,26.7-23.6c0.7-15.6-10-28.3-24.6-28C1267.1,831.9,1255.3,839.3,1255.3,857.5z M874,848.8c0,0.1,0,0.1,0,0.2
	c7.9,0,15.9,0.2,23.8-0.1c7-0.2,8.9-4.2,7.2-10.8c-3.5-13.6-17.2-22.9-32.2-21.4c-13.7,1.3-25.6,10.8-27.2,21.8
	c-0.9,5.8-0.5,10.8,7.7,10.3C860.2,848.5,867.1,848.8,874,848.8z"/>
<g>
	<path d="M1880.8,794.3c2.1,0,3.6,0,5.2,0c22.5,0,45,0,67.5,0c6.4,0,7.6,1.2,7.6,7.5c0,115.1,0,230.3,0,345.4c0,57,0,114,0,171
		c0,6.2-0.6,6.8-6.7,6.8c-172.3,0-344.5,0-516.8,0c-5,0-7.4-0.7-7.4-7.1c0.1-172.1,0.1-344.3,0-516.4c0-5.5,3.4-9.3,8.3-10.4
		c45.9-10.3,91.7-20.8,137.6-31.2c63.5-14.5,126.9-29,190.4-43.4c22.9-5.2,45.9-10.3,68.8-15.5c12.6-2.9,25.1-5.8,37.6-8.8
		c6.6-1.5,8-0.4,8,6.3c0,30,0,60.1,0,90.1C1880.8,790.3,1880.8,792,1880.8,794.3z M1447.4,811.2c0,165.9,0,331.4,0,496.8
		c165.7,0,331.1,0,496.5,0c0-165.8,0-331.2,0-496.8C1778.3,811.2,1613,811.2,1447.4,811.2z M1863.7,794.1c0-27.5,0-54.7,0-82.4
		c-120,27.3-239.7,54.6-359.4,81.8c0,0.2,0.1,0.4,0.1,0.6C1624,794.1,1743.7,794.1,1863.7,794.1z"/>
</g>
<g>
	<path class="st0" d="M607.4,1901.6H69.7c-23.4,0-42.5-19.1-42.5-42.5v-324.3c0-23.4,19.1-42.5,42.5-42.5h537.6
		c23.4,0,42.5,19.1,42.5,42.5v324.3C649.9,1882.5,630.8,1901.6,607.4,1901.6z"/>
	<path d="M139.4,1527.1c8.4-1,14.7,5.3,14.7,14.4c0.1,31.2,0,62.5,0.1,93.7c0,3.1-1.3,5.4-3,7.3c-4.4,4.7-8.6,9.8-13.5,13.6
		c-5.1,3.9-7.2,8.2-6.5,15.2c0.6,5.5,0.1,11.1,0.1,16.6c0,1.6,0.4,2.6,1.7,3.4c4.3,2.6,6.4,6.9,6.5,12.4c0.1,6,0,12,0,18
		c0,43.3,0,86.7,0,130c0,7.8-3.1,13.7-8.9,14.8c-4.9,0.9-10.1,0.8-15,0c-5.2-0.9-8.5-6.6-8.8-12.7c0-0.8,0-1.6,0-2.4
		c0-48.7,0-97.4,0-146.1c0-6.4,1.9-11.2,6.9-14.3c0.6-0.4,1.2-1.7,1.2-2.5c0.1-8.2,0.1-16.3,0-24.4c0-1.1-0.9-2.4-1.7-3.1
		c-5.5-5-11.1-9.9-16.6-14.8c-0.3-0.3-0.6-0.6-0.9-0.9c-4.1-3.8-5.7-8.5-5.6-14.7c0.3-29.1,0.1-58.2,0.2-87.3c0-2.8,0.2-5.8,0.8-8.5
		c1.5-6,7.9-9.7,13-7.8c0.4,0.1,0.8,0.8,0.9,1.3c0.2,0.8,0.1,1.6,0.1,2.4c0,31.2,0,62.5,0,93.7c0,2.6,0.1,4.9,2.6,6
		c2.8,1.2,5.6,1.3,7.9-1.1c0.8-0.8,1.2-2.7,1.2-4.1c0.1-9.7,0.1-19.3,0.1-29c0-22.1,0-44.2,0-66.3c0-2.3,0.4-3.2,2.6-3.1
		c2.2,0.2,4.5-0.1,6.8,0.1c0.6,0.1,1.3,1.1,1.6,1.8c0.3,0.6,0.1,1.4,0.1,2.1c0,31.1,0,62.1,0,93.2c0,2.4-0.2,4.9,2.3,6.1
		c2.7,1.3,5.4,1.4,7.8-0.6c1-0.9,1.6-2.9,1.6-4.4c0.1-8.3,0.1-16.7,0.1-25c0-23.3,0-46.6,0-69.8
		C139.4,1529.4,139.4,1528.3,139.4,1527.1z"/>
	<path d="M581,1632.6c0,28.3,0,56.6,0,84.9c-0.1,46.2-0.2,92.4-0.2,138.6c0,7.5-4.1,12.8-10.3,12.1c-1.4-0.2-2.8,0-4.3,0
		c-4.4-0.1-7.8-3.4-8.5-8.6c-0.2-1.5-0.2-3-0.2-4.6c0-39.2,0-78.4-0.1-117.7c0-1.9-0.5-4.1-1.2-5.8c-8.1-17.3-12.6-36-15.1-55.6
		c-3.1-23.8-3.5-47.8-2.5-71.8c1-24.3,7-46.8,20.3-65.9c2.7-3.8,5.8-7.3,8.9-10.6c4.1-4.3,9.7-2.8,11.6,3.3
		c1.1,3.5,1.6,7.5,1.7,11.2C581.1,1572.4,581,1602.5,581,1632.6z"/>
</g>
<g>
	<path class="st1" d="M50.4,2185.3c0,0,76.6-37.4,142.6-37.3c65.6,0,141.7,38.8,141.7,38.8"/>
	<path class="st1" d="M332,2187.5c0,0,78.7-38.6,144.7-38.6c65.6,0,139.5,37.7,139.5,37.7"/>
	<path class="st1" d="M50.5,2546.1c0,0,76.7-38,142.7-38c65.6,0,141.7,38.8,141.7,38.8"/>
	<path class="st1" d="M335.3,2546.7c0,0,75.6-38.5,141.7-38.4c65.6,0,139,37.7,139,37.7"/>
	<line class="st1" x1="50.4" y1="2185.3" x2="50.7" y2="2546"/>
	<line class="st1" x1="616.1" y1="2186.4" x2="616.4" y2="2544.1"/>
	<line class="st1" x1="333.8" y1="2185.6" x2="334.1" y2="2543.3"/>
	<path class="st2" d="M89.4,2245.9c0,0,56.4-29,103.8-29c47,0,101.6,29.1,101.6,29.1"/>
	<path class="st2" d="M89.3,2316.3c0,0,56.4-29,103.8-29c47,0,101.6,29.1,101.6,29.1"/>
	<path class="st2" d="M89.3,2386.8c0,0,56.4-29,103.8-29c47,0,101.6,29.1,101.6,29.1"/>
	<path class="st2" d="M89.3,2457.2c0,0,56.4-29,103.8-29c47,0,101.6,29.1,101.6,29.1"/>
	<line class="st1" x1="31.8" y1="2551.6" x2="635.1" y2="2552"/>
	<path class="st2" d="M372.8,2246.5c0,0,56.4-29,103.8-29c47,0,101.6,29.1,101.6,29.1"/>
	<path class="st2" d="M372.7,2316.9c0,0,56.4-29,103.8-29c47,0,101.6,29.1,101.6,29.1"/>
	<path class="st2" d="M372.7,2387.3c0,0,56.4-29,103.8-29c47,0,101.6,29.1,101.6,29.1"/>
	<path class="st2" d="M372.6,2457.7c0,0,56.4-29,103.8-29c47,0,101.6,29.1,101.6,29.1"/>
</g>
<g>
	<path class="st0" d="M1955.3,1961.7h-527.5c-23.4,0-42.5-19.1-42.5-42.5v-317.7c0-23.4,19.1-42.5,42.5-42.5h527.5
		c23.4,0,42.5,19.1,42.5,42.5v317.7C1997.8,1942.6,1978.7,1961.7,1955.3,1961.7z"/>
	<path class="st0" d="M1934.8,1911.6h-486.5c-6.2,0-11.3-5.1-11.3-11.3v-279.7c0-6.2,5.1-11.3,11.3-11.3h486.5
		c6.2,0,11.3,5.1,11.3,11.3v279.7C1946.2,1906.4,1941.1,1911.6,1934.8,1911.6z"/>
	<circle class="st0" cx="1691.6" cy="1437.1" r="33"/>
	<line class="st0" x1="1660.5" y1="1459.6" x2="1526.2" y2="1559.6"/>
	<line class="st0" x1="1723.8" y1="1459.6" x2="1858.1" y2="1559.6"/>
</g>
<g>
	<line class="st1" x1="2303.1" y1="129.6" x2="2071.9" y2="293.7"/>
	<line class="st1" x1="2301.9" y1="458.6" x2="2070.7" y2="294.5"/>
	<line class="st1" x1="2303.1" y1="130.2" x2="2303.1" y2="225"/>
	<line class="st1" x1="2301.9" y1="359.2" x2="2301.9" y2="454"/>
	<path class="st1" d="M2303.1,225c232.2,0,344.3,198.6,344.3,340.3"/>
	<path class="st1" d="M2301.9,359.2c243.2,0,345,117,345,209.9"/>
</g>
<g>
	<line class="st1" x1="2421.5" y1="800" x2="2652.6" y2="964"/>
	<line class="st1" x1="2422.7" y1="1129" x2="2653.9" y2="964.9"/>
	<line class="st1" x1="2421.5" y1="800.5" x2="2421.5" y2="895.4"/>
	<line class="st1" x1="2422.7" y1="1029.6" x2="2422.7" y2="1124.4"/>
	<path class="st1" d="M2421.5,895.4c-232.2,0-344.3,198.6-344.3,340.3"/>
	<path class="st1" d="M2422.7,1029.6c-243.2,0-345,117-345,209.9"/>
</g>
<g>
	<path d="M1181.9,1375.8c5.5,1.5,11.1,2.7,16.4,4.6c26.8,9.9,44.8,35.6,44.9,64.1c0.1,106.6,0.1,374.1,0,480.7
		c0,38.2-30.9,68.6-69.7,68.7c-82.2,0.1-164.4,0-246.6,0c-20,0-126-0.1-144.5-0.1c0,0,0.2-21.3,0.2-58.9c0-0.9-0.3-386.3-0.3-497.7
		c0.3-0.8,0.5-60.5,0.5-61.4c0,0,5.2,0,61,0C950.7,1375.8,1074.9,1375.8,1181.9,1375.8z M797.1,1604.4c0,53.4-0.1,267.7,0,321
		c0,53.9,0,53.9,0,53.9c14.3-0.2,100.2-0.1,114.4-0.1c87.2,0,174.3,0.2,261.5,0.1c32.2-0.1,55.5-23.9,55.5-56.2c0-105,0-371,0-476
		c0-33-23.6-56.5-56.6-56.5c-100.3,0-273.9,0-374.3,0c-0.5,0-0.5,0-0.5,0.4C797.1,1443.4,797.1,1551.9,797.1,1604.4z"/>
	<rect x="1116.8" y="1377.7" width="31.7" height="611.4"/>
	<path class="st3" d="M848.1,1383.5l0.3,99c0,1.5,1.8,2.4,3,1.4l53.3-45.1c0.5-0.4,1.2-0.4,1.7,0l53.2,45.4c1.2,1,3.1,0.2,3-1.4
		l-0.3-98.9"/>
</g>
<g>
	<path d="M2542.4,1823.2l-9.5,9.5c0,43.6,0,62,0,89c0,31.5-22.7,54.9-54.2,54.9c-85.2,0.1-170.4,0-255.6-0.1
		c-13.9,0-27.9-0.1-41.8,0.1c-28.8,0.4-53.1-23.6-53.2-52.7c-0.1-52.2,0-267.3,0-319.5c0-51.2,0-102.5,0-153.8
		c0-32.3,22.9-55.2,55.3-55.2c98.1,0,196.2,0,294.3,0c32.3,0,55.3,23,55.3,55.2c0,61,0,168.8,0,276.6l14.4-14.4v-2.5
		c0-103.9,0-203.4-0.1-262.1c0-27.9-17.6-52.9-43.9-62.7c-5.2-1.9-10.7-3-16-4.5h-313.9c-5.1,1.4-10.3,2.2-15.2,4.1
		c-24.6,9.6-39.4,27.3-44,53.4c-0.1,0.8-0.6,1.7-0.9,2.5v489.7c0.3,0.8,0.7,1.7,0.8,2.6c5,32.8,32.1,56.9,65.1,57.6
		c19.6,0.4,39.1,0.1,58.7,0.1c80.4,0,160.8,0.1,241.1,0c37.9,0,68.1-29.8,68.1-67.1l0-105.6
		C2545.7,1819.9,2544.1,1821.5,2542.4,1823.2z"/>
	<line class="st4" x1="2184.4" y1="1483.6" x2="2417.6" y2="1483.6"/>
	<line class="st4" x1="2184.4" y1="1548" x2="2443.2" y2="1548"/>
	<line class="st4" x1="2184.4" y1="1610.5" x2="2417.6" y2="1610.5"/>
	<line class="st4" x1="2184" y1="1671.4" x2="2442.8" y2="1671.4"/>
	<line class="st4" x1="2184" y1="1733.8" x2="2417.2" y2="1733.8"/>
	<circle class="st5" cx="2216.6" cy="1888.9" r="24.5"/>
	<path class="st6" d="M2276.7,1893.8c0.5,1.8,14.3,24.3,19.7,20c18.3-14.8,32.7-27.1,58.8-56.8"/>
	<line class="st4" x1="2184" y1="1797.3" x2="2442.8" y2="1797.3"/>
	<path d="M2399.7,1916c-0.4-1.2-1.2-2.4-1-3.2c0.6-1.9,1.6-3.6,2.6-5.3c11.7-22.1,23.4-44.2,35.2-66.2c1.5-2.7,3.5-5.3,5.7-7.5
		c51.9-52,104-104,155.9-156.1c3.2-3.2,5.8-3.8,9.8-1.8c14.1,7,24.5,17.5,31,31.9c1.2,2.7,1.1,4.5-1.2,6.7
		c-52.9,52.8-105.8,105.6-158.7,158.4c-1.9,1.9-4.3,3.4-6.6,4.7c-22.9,12.2-45.8,24.3-68.6,36.4
		C2402.6,1914.6,2401.5,1915.1,2399.7,1916z M2587.3,1701c-44.9,45-89.6,89.8-134.6,134.8c10.6,6.3,19.3,15,25.8,26
		c1.5-1.4,2.6-2.4,3.7-3.4c24.9-24.8,49.7-49.7,74.6-74.6c17.9-17.9,35.8-35.8,53.7-53.7c1.4-1.4,3.3-2.5,1.6-5.2
		C2605.4,1715,2597.4,1706.8,2587.3,1701z M2445.6,1841.6c-6.8,12.8-13.5,25.3-19.9,37.3c3,3.3,5.8,6.3,8.7,9.5
		c12.6-6.7,25.1-13.3,38-20.2C2466.2,1856.4,2457.6,1847.7,2445.6,1841.6z M2593.5,1693.3c9.4,9.4,18,18,27,27
		c2.5-2.7,5.7-5.7,8.5-9c0.7-0.8,1-2.9,0.5-3.9c-5.2-10.1-12.9-17.8-23.1-23c-0.9-0.5-2.7-0.3-3.5,0.3
		C2599.5,1687.7,2596.3,1690.8,2593.5,1693.3z"/>
</g>
<text transform="matrix(0.9918 0 0 1 857.0513 2542.1396)" class="st7 st8 st9">?</text>
<path d="M1180.2,2107.5c5.7,1.6,11.6,2.8,17.1,4.9c28,10.5,46.8,37.4,46.8,67.5c0.1,112.1,0.1,224.2,0,336.4
	c0,40.2-32.3,72.2-72.7,72.3c-85.8,0.1-171.6,0-257.4,0c-20.9,0-41.8,0.3-62.6-0.1c-35.2-0.7-64.1-26.7-69.5-62
	c-0.1-0.9-0.6-1.8-0.9-2.7c0-117.2,0-234.4,0-351.5c0.3-0.9,0.7-1.8,0.9-2.7c5-28,20.7-47.2,47-57.5c5.2-2,10.8-3,16.2-4.5
	C956.8,2107.5,1068.5,2107.5,1180.2,2107.5z M796.5,2348c0,56.1-0.1,112.3,0,168.4c0.1,31.4,26.1,57.1,56.8,56.7
	c14.9-0.2,29.8-0.1,44.7-0.1c91,0,181.9,0.2,272.9,0.1c33.6-0.1,57.9-25.2,57.9-59.1c0-110.5,0-221,0-331.4
	c0-34.7-24.6-59.4-59.1-59.4c-104.7,0-209.4,0-314.1,0c-34.5,0-59,24.7-59,59.4C796.5,2237.6,796.5,2292.8,796.5,2348z"/>
<g>
	<rect x="1468.3" y="2179.6" class="st10" width="376.7" height="376.7"/>
	<line class="st10" x1="1912.9" y1="2107.5" x2="1846.8" y2="2177.9"/>
	<polyline class="st10" points="1846.8,2558 1912.9,2487.6 1912.9,2107.5 1532.8,2107.5 1466.6,2177.9 	"/>
	<path class="st10" d="M1766.1,2361.5h-227c-6.6,0-12-5.4-12-12V2263c0-6.6,5.4-12,12-12h227c6.6,0,12,5.4,12,12v86.5
		C1778.1,2356.1,1772.7,2361.5,1766.1,2361.5z"/>
	<line class="st11" x1="1553.3" y1="2276.7" x2="1673.6" y2="2276.7"/>
	<line class="st11" x1="1553.3" y1="2305.7" x2="1661.7" y2="2305.7"/>
	<line class="st11" x1="1553.3" y1="2334.7" x2="1673.6" y2="2334.7"/>
</g>
</svg>
