<?xml version="1.0" standalone="no"?>
<!DOCTYPE svg PUBLIC "-//W3C//DTD SVG 20010904//EN"
 "http://www.w3.org/TR/2001/REC-SVG-20010904/DTD/svg10.dtd">
<svg version="1.0" xmlns="http://www.w3.org/2000/svg"
 width="155.000000pt" height="95.000000pt" viewBox="0 0 155.000000 95.000000"
 preserveAspectRatio="xMidYMid meet">
<metadata>
Created by potrace 1.15, written by Peter Selinger 2001-2017
</metadata>
<g transform="translate(0.000000,95.000000) scale(0.100000,-0.100000)"
fill="#000000" stroke="none">
<path d="M129 823 c-36 -30 -111 -141 -106 -156 1 -5 47 -9 104 -8 89 2 101 0
106 -16 3 -10 29 -83 57 -163 28 -80 67 -192 86 -250 19 -58 40 -117 47 -132
l12 -28 106 0 107 0 10 28 c6 15 23 63 38 107 59 179 66 197 76 187 5 -5 33
-78 62 -163 l54 -154 105 -3 c124 -3 110 -15 162 141 33 100 64 189 124 357
17 47 31 86 31 88 0 2 46 2 103 1 119 -3 120 -2 62 85 -52 79 -91 109 -129
102 -37 -8 -122 -71 -207 -155 -62 -62 -69 -73 -104 -174 -21 -59 -39 -106
-40 -105 -1 2 -28 78 -60 171 l-58 167 -108 0 -108 0 -19 -52 c-10 -29 -36
-104 -58 -165 -21 -62 -41 -113 -44 -113 -3 0 -21 46 -39 101 -31 90 -41 107
-91 158 -103 104 -195 171 -234 171 -8 0 -29 -12 -47 -27z m1251 -13 c16 -9
90 -101 90 -113 0 -2 -57 -7 -127 -10 -71 -3 -141 -9 -158 -12 -28 -7 -26 -4
24 41 56 51 130 104 144 104 5 0 17 -4 27 -10z m-1093 -57 c71 -60 161 -155
166 -176 3 -12 20 -65 39 -118 l35 -95 -42 -117 -41 -118 -36 98 c-19 54 -61
172 -92 263 -32 91 -70 200 -86 242 l-28 78 29 -17 c16 -10 41 -28 56 -40z
m583 -65 c6 -18 34 -98 61 -177 l51 -145 -39 -113 c-21 -62 -40 -113 -43 -113
-3 0 -29 66 -57 148 -29 81 -74 211 -102 290 l-50 142 84 0 83 0 12 -32z"/>
</g>
</svg>
